<?xml version="1.0" encoding="UTF-8" standalone="no"?>
<!-- Generated by IcoMoon.io -->

<svg
   version="1.1"
   width="64"
   height="32"
   viewBox="0 0 64 32"
   id="svg4"
   sodipodi:docname="circle.svg"
   inkscape:version="1.1.2 (0a00cf5339, 2022-02-04)"
   xmlns:inkscape="http://www.inkscape.org/namespaces/inkscape"
   xmlns:sodipodi="http://sodipodi.sourceforge.net/DTD/sodipodi-0.dtd"
   xmlns="http://www.w3.org/2000/svg"
   xmlns:svg="http://www.w3.org/2000/svg">
  <defs
     id="defs8" />
  <sodipodi:namedview
     id="namedview6"
     pagecolor="#ffffff"
     bordercolor="#666666"
     borderopacity="1.0"
     inkscape:pageshadow="2"
     inkscape:pageopacity="0.0"
     inkscape:pagecheckerboard="0"
     showgrid="true"
     height="32px"
     inkscape:zoom="10.0625"
     inkscape:cx="17.937888"
     inkscape:cy="32"
     inkscape:window-width="2560"
     inkscape:window-height="1375"
     inkscape:window-x="1"
     inkscape:window-y="0"
     inkscape:window-maximized="1"
     inkscape:current-layer="svg4">
    <inkscape:grid
       type="xygrid"
       id="grid825" />
  </sodipodi:namedview>
  <path
     id="path965"
     style="fill:#000000;stroke:#000000;stroke-width:0.1;stroke-linecap:round;stroke-linejoin:bevel;stroke-miterlimit:4;stroke-dasharray:none"
     d="m 15.269531,1 a 15,15 0 0 0 -15,15 15,15 0 0 0 15,15 A 15,15 0 0 0 29,22 h 7.269531 l 3,-3 3,3 5,-5 5,5 3,-3 3,3 6,-6 -6,-6 H 29.011719 A 15,15 0 0 0 15.269531,1 Z m -5.8300781,9.380859 a 5.5,5.5 0 0 1 5.5000001,5.5 5.5,5.5 0 0 1 -5.5000001,5.5 5.5,5.5 0 0 1 -5.5,-5.5 5.5,5.5 0 0 1 5.5,-5.5 z" />
</svg>
