<?xml version="1.0" encoding="UTF-8" standalone="no"?>
<!-- Generated by IcoMoon.io -->

<svg
   version="1.1"
   width="64"
   height="64"
   viewBox="0 0 64 64"
   id="svg4"
   sodipodi:docname="xor.svg"
   inkscape:version="1.1.2 (0a00cf5339, 2022-02-04)"
   xmlns:inkscape="http://www.inkscape.org/namespaces/inkscape"
   xmlns:sodipodi="http://sodipodi.sourceforge.net/DTD/sodipodi-0.dtd"
   xmlns="http://www.w3.org/2000/svg"
   xmlns:svg="http://www.w3.org/2000/svg">
  <defs
     id="defs8" />
  <sodipodi:namedview
     id="namedview6"
     pagecolor="#ffffff"
     bordercolor="#666666"
     borderopacity="1.0"
     inkscape:pageshadow="2"
     inkscape:pageopacity="0.0"
     inkscape:pagecheckerboard="0"
     showgrid="true"
     height="64px"
     inkscape:zoom="10.0625"
     inkscape:cx="17.888199"
     inkscape:cy="32"
     inkscape:window-width="2063"
     inkscape:window-height="919"
     inkscape:window-x="252"
     inkscape:window-y="235"
     inkscape:window-maximized="0"
     inkscape:current-layer="svg4">
    <inkscape:grid
       type="xygrid"
       id="grid825" />
  </sodipodi:namedview>
  <path
     id="path924"
     style="fill:#000000;stroke:#000000;stroke-width:0.1;stroke-linecap:round;stroke-linejoin:bevel"
     d="M 32 1 A 31 31 0 0 0 1 32 A 31 31 0 0 0 32 63 A 31 31 0 0 0 63 32 A 31 31 0 0 0 32 1 z M 28 8.53125 L 28 29 L 8.2167969 29 A 24.014648 23.910509 0 0 1 28 8.53125 z M 36 8.5371094 A 24.014648 23.910509 0 0 1 55.765625 29.101562 C 55.520967 29.037503 55.265293 29 55 29 L 36 29 L 36 8.5371094 z M 55.433594 36.964844 A 24.014648 23.910509 0 0 1 36 55.646484 L 36 37 L 55 37 C 55.148028 37 55.291423 36.985355 55.433594 36.964844 z M 8.5488281 37 L 28 37 L 28 55.652344 A 24.014648 23.910509 0 0 1 8.5488281 37 z " />
</svg>
